<?xml version="1.0" encoding="UTF-8"?>
<svg width="103px" height="100px" viewBox="0 0 103 100" version="1.1" xmlns="http://www.w3.org/2000/svg" xmlns:xlink="http://www.w3.org/1999/xlink">
    <title>Fill 52</title>
    <g id="Page-1" stroke="none" stroke-width="1" fill="none" fill-rule="evenodd">
        <g id="Artboard" transform="translate(-1039.000000, -1256.000000)" fill="#FFFFFE">
            <g id="Group-2" transform="translate(778.000000, 1256.000000)">
                <path d="M261,51.265447 C261,73.9162393 275.689354,93.1330352 296.059022,99.9118882 C298.621148,100.38645 299.561783,98.7997658 299.561783,97.4456931 C299.561783,96.2232074 299.514242,92.1847599 299.492169,87.9009662 C285.229836,91.0021748 282.220314,81.8522089 282.220314,81.8522089 C279.888253,75.9265491 276.528115,74.3509008 276.528115,74.3509008 C271.876727,71.1690422 276.878731,71.2344113 276.878731,71.2344113 C282.026754,71.5952143 284.737446,76.5174172 284.737446,76.5174172 C289.309882,84.3549088 296.73054,82.0890655 299.656016,80.7791381 C300.116146,77.4665415 301.444751,75.203245 302.910885,73.9238798 C291.52394,72.6275356 279.553767,68.2316808 279.553767,48.5878638 C279.553767,42.990747 281.556437,38.4174619 284.835924,34.8272591 C284.303634,33.5351597 282.548857,28.3217676 285.332559,21.2602148 C285.332559,21.2602148 289.637576,19.8823715 299.434441,26.5152054 C303.523825,25.3793124 307.909493,24.809668 312.266296,24.7901422 C316.623099,24.809668 321.012162,25.3793124 325.109187,26.5152054 C334.894167,19.8823715 339.193241,21.2602148 339.193241,21.2602148 C341.983735,28.3217676 340.228109,33.5351597 339.695819,34.8272591 C342.982947,38.4174619 344.972033,42.990747 344.972033,48.5878638 C344.972033,68.2783729 332.978939,72.6139524 321.56313,73.8831303 C323.401952,75.4740596 325.040423,78.5939449 325.040423,83.3769202 C325.040423,90.2355743 324.980996,95.7562858 324.980996,97.4456931 C324.980996,98.8099532 325.903803,100.408523 328.502434,99.9050966 C348.861066,93.1186031 363.531743,73.9085987 363.531743,51.265447 C363.531743,22.95132 340.578725,0 312.266296,0 C283.956414,0 261,22.95132 261,51.265447 Z" id="Fill-52"></path>
            </g>
        </g>
    </g>
</svg>