<?xml version="1.0" encoding="UTF-8"?>
<svg width="48px" height="46px" viewBox="0 0 48 46" version="1.1" xmlns="http://www.w3.org/2000/svg" xmlns:xlink="http://www.w3.org/1999/xlink">
    <title>home_icon</title>
    <g id="Page-1" stroke="none" stroke-width="1" fill="none" fill-rule="evenodd">
        <g id="home_icon" transform="translate(0.000000, -0.000000)" fill="#6D9DC5" fill-rule="nonzero">
            <path d="M24.0004148,6.66133815e-16 C23.7829148,6.66133815e-16 23.5662738,0.0689844 23.3812738,0.2089844 L0.381274153,18.1601568 C-0.0487258669,18.5001568 -0.128647747,19.1283598 0.211352253,19.5683598 C0.551352253,19.9983598 1.17955535,20.0782808 1.61955535,19.7382808 L3.00041475,18.6601568 L3.00041475,44.9492188 C3.00041475,45.4992188 3.45041475,45.9492188 4.00041475,45.9492188 L18.0004148,45.9492188 L18.0004148,27.9492188 L30.0004148,27.9492188 L30.0004148,45.9492188 L44.0004148,45.9492188 C44.5504148,45.9492188 45.0004148,45.4992188 45.0004148,44.9492188 L45.0004148,18.6601568 L46.3812738,19.7382808 C46.5712738,19.8782818 46.7804148,19.9492188 47.0004148,19.9492188 C47.3004148,19.9492188 47.5894778,19.8183598 47.7894768,19.5683598 C48.1294778,19.1283598 48.0495558,18.5001568 47.6195558,18.1601568 L24.6195558,0.2089844 C24.4345558,0.0689844 24.2179148,6.66133815e-16 24.0004148,6.66133815e-16 Z M34.0004148,3.9492188 L34.0004148,5 L40.0004148,9.6796878 L40.0004148,3.9492188 L34.0004148,3.9492188 Z" id="Shape"></path>
        </g>
    </g>
</svg>